<svg version="1.1" id="Layer_1" xmlns="http://www.w3.org/2000/svg" xmlns:xlink="http://www.w3.org/1999/xlink" x="0px" y="0px"
	 width="100%" viewBox="0 0 512 512" enable-background="new 0 0 512 512" xml:space="preserve">
<path fill="#A9C078" opacity="1.000000" stroke="none" 
	d="
M295.000000,513.000000 
	C196.690536,513.000000 98.881065,513.000000 1.035801,513.000000 
	C1.035801,342.398834 1.035801,171.797684 1.035801,1.098256 
	C171.559479,1.098256 342.119049,1.098256 512.839294,1.098256 
	C512.839294,171.666550 512.839294,342.333252 512.839294,513.000000 
	C440.464325,513.000000 367.982147,513.000000 295.000000,513.000000 
M246.528809,55.473167 
	C181.135239,55.473167 115.741669,55.473167 50.375301,55.473167 
	C50.375301,70.773476 50.375301,84.988930 50.375301,99.711823 
	C111.987892,99.711823 173.225220,99.711823 234.924469,99.711823 
	C234.924469,175.800903 234.924469,251.377640 234.924469,327.291077 
	C249.784103,327.291077 264.178833,327.291077 279.219543,327.291077 
	C279.219543,251.296753 279.219543,175.613770 279.219543,99.439178 
	C341.118713,99.439178 402.373840,99.439178 463.677124,99.439178 
	C463.677124,84.695053 463.677124,70.449593 463.677124,55.473454 
	C391.408905,55.473454 319.464508,55.473454 246.528809,55.473167 
M168.500061,142.784698 
	C161.222900,142.784698 153.945740,142.784698 146.068542,142.784698 
	C146.068542,180.560364 146.068542,217.696335 146.068542,254.832306 
	C144.433868,253.349838 143.643921,251.761459 142.932083,250.138824 
	C127.830559,215.714767 112.696777,181.304703 97.711250,146.830200 
	C96.320641,143.631073 94.665985,142.304016 91.074448,142.393463 
	C78.422974,142.708557 65.763062,142.679810 53.106663,142.812042 
	C52.171959,142.821793 51.239792,143.074356 50.288811,143.216690 
	C50.288811,219.269440 50.288811,294.990692 50.288811,370.807434 
	C65.444565,370.807434 80.305992,370.807434 95.948593,370.807434 
	C95.948593,333.515991 95.948593,296.625793 95.948593,259.735565 
	C97.349472,260.738373 97.861534,261.773560 98.325211,262.829956 
	C113.567810,297.557068 128.858749,332.263245 143.962158,367.050812 
	C145.466812,370.516418 147.326187,371.714508 151.034317,371.604919 
	C162.019012,371.280151 173.014389,371.314697 184.005676,371.218414 
	C186.447433,371.197021 188.889526,371.215271 191.591095,371.215271 
	C191.591095,294.850372 191.591095,219.140594 191.591095,142.784653 
	C184.054230,142.784653 176.777130,142.784653 168.500061,142.784698 
M322.132080,242.499969 
	C322.132080,285.264954 322.132080,328.029907 322.132080,370.775879 
	C337.748932,370.775879 352.630402,370.775879 368.073364,370.775879 
	C368.073364,340.443634 368.073364,310.546631 368.073364,280.574768 
	C385.053955,280.574768 401.461700,280.574768 418.447876,280.574768 
	C418.447876,310.856445 418.447876,340.785187 418.447876,370.820312 
	C433.911865,370.820312 448.790985,370.820312 463.672424,370.820312 
	C463.672424,294.681641 463.672424,218.938873 463.672424,143.038116 
	C448.571167,143.038116 433.800690,143.038116 418.244904,143.038116 
	C418.244904,173.309479 418.244904,203.338470 418.244904,233.409363 
	C401.053070,233.409363 384.650238,233.409363 367.721375,233.409363 
	C367.721375,203.115295 367.721375,173.192459 367.721375,143.190445 
	C352.306915,143.190445 337.426392,143.190445 322.132080,143.190445 
	C322.132080,176.229858 322.132080,208.864914 322.132080,242.499969 
M351.500183,414.368347 
	C251.095001,414.368347 150.689819,414.368347 50.388023,414.368347 
	C50.388023,429.468781 50.388023,443.712250 50.388023,457.897034 
	C188.366211,457.897034 325.952423,457.897034 463.694000,457.897034 
	C463.694000,443.346863 463.694000,429.118835 463.694000,414.368500 
	C426.424622,414.368500 389.462402,414.368500 351.500183,414.368347 
z"/>
<path fill="#1E2715" opacity="1.000000" stroke="none" 
	d="
M247.024460,55.473312 
	C319.464508,55.473454 391.408905,55.473454 463.677124,55.473454 
	C463.677124,70.449593 463.677124,84.695053 463.677124,99.439178 
	C402.373840,99.439178 341.118713,99.439178 279.219543,99.439178 
	C279.219543,175.613770 279.219543,251.296753 279.219543,327.291077 
	C264.178833,327.291077 249.784103,327.291077 234.924469,327.291077 
	C234.924469,251.377640 234.924469,175.800903 234.924469,99.711823 
	C173.225220,99.711823 111.987892,99.711823 50.375301,99.711823 
	C50.375301,84.988930 50.375301,70.773476 50.375301,55.473167 
	C115.741669,55.473167 181.135239,55.473167 247.024460,55.473312 
z"/>
<path fill="#1E2715" opacity="1.000000" stroke="none" 
	d="
M169.000046,142.784668 
	C176.777130,142.784653 184.054230,142.784653 191.591095,142.784653 
	C191.591095,219.140594 191.591095,294.850372 191.591095,371.215271 
	C188.889526,371.215271 186.447433,371.197021 184.005676,371.218414 
	C173.014389,371.314697 162.019012,371.280151 151.034317,371.604919 
	C147.326187,371.714508 145.466812,370.516418 143.962158,367.050812 
	C128.858749,332.263245 113.567810,297.557068 98.325211,262.829956 
	C97.861534,261.773560 97.349472,260.738373 95.948593,259.735565 
	C95.948593,296.625793 95.948593,333.515991 95.948593,370.807434 
	C80.305992,370.807434 65.444565,370.807434 50.288811,370.807434 
	C50.288811,294.990692 50.288811,219.269440 50.288811,143.216690 
	C51.239792,143.074356 52.171959,142.821793 53.106663,142.812042 
	C65.763062,142.679810 78.422974,142.708557 91.074448,142.393463 
	C94.665985,142.304016 96.320641,143.631073 97.711250,146.830200 
	C112.696777,181.304703 127.830559,215.714767 142.932083,250.138824 
	C143.643921,251.761459 144.433868,253.349838 146.068542,254.832306 
	C146.068542,217.696335 146.068542,180.560364 146.068542,142.784698 
	C153.945740,142.784698 161.222900,142.784698 169.000046,142.784668 
z"/>
<path fill="#1E2715" opacity="1.000000" stroke="none" 
	d="
M322.132080,241.999969 
	C322.132080,208.864914 322.132080,176.229858 322.132080,143.190445 
	C337.426392,143.190445 352.306915,143.190445 367.721375,143.190445 
	C367.721375,173.192459 367.721375,203.115295 367.721375,233.409363 
	C384.650238,233.409363 401.053070,233.409363 418.244904,233.409363 
	C418.244904,203.338470 418.244904,173.309479 418.244904,143.038116 
	C433.800690,143.038116 448.571167,143.038116 463.672424,143.038116 
	C463.672424,218.938873 463.672424,294.681641 463.672424,370.820312 
	C448.790985,370.820312 433.911865,370.820312 418.447876,370.820312 
	C418.447876,340.785187 418.447876,310.856445 418.447876,280.574768 
	C401.461700,280.574768 385.053955,280.574768 368.073364,280.574768 
	C368.073364,310.546631 368.073364,340.443634 368.073364,370.775879 
	C352.630402,370.775879 337.748932,370.775879 322.132080,370.775879 
	C322.132080,328.029907 322.132080,285.264954 322.132080,241.999969 
z"/>
<path fill="#1E2715" opacity="1.000000" stroke="none" 
	d="
M352.000183,414.368408 
	C389.462402,414.368500 426.424622,414.368500 463.694000,414.368500 
	C463.694000,429.118835 463.694000,443.346863 463.694000,457.897034 
	C325.952423,457.897034 188.366211,457.897034 50.388023,457.897034 
	C50.388023,443.712250 50.388023,429.468781 50.388023,414.368347 
	C150.689819,414.368347 251.095001,414.368347 352.000183,414.368408 
z"/>
</svg>