<svg version="1.1" id="Layer_1" xmlns="http://www.w3.org/2000/svg" xmlns:xlink="http://www.w3.org/1999/xlink" x="0px" y="0px"
	 width="100%" viewBox="0 0 512 512" enable-background="new 0 0 512 512" xml:space="preserve">
<path fill="#A9C078" opacity="1.000000" stroke="none" 
	d="
M346.000000,513.000000 
	C230.694687,513.000000 115.889366,513.000000 1.042022,513.000000 
	C1.042022,342.402985 1.042022,171.805969 1.042022,1.104477 
	C171.555328,1.104477 342.110718,1.104477 512.833069,1.104477 
	C512.833069,171.666534 512.833069,342.333252 512.833069,513.000000 
	C457.472565,513.000000 401.986298,513.000000 346.000000,513.000000 
M77.890160,404.594604 
	C86.869164,415.177765 97.782997,422.996490 110.990143,428.244202 
	C111.812904,426.322388 112.492416,424.834259 113.094131,423.315308 
	C140.364380,354.478363 167.688919,285.662781 194.763870,216.749084 
	C196.710251,211.794983 198.946350,210.050842 204.358002,210.075958 
	C254.353760,210.307953 304.351044,210.216034 354.347900,210.211655 
	C385.007843,210.208969 411.393097,191.135010 420.749878,161.993866 
	C423.119110,154.614944 424.937561,147.051620 423.848114,138.597061 
	C357.753510,138.597061 292.048615,138.597061 224.933624,138.597061 
	C232.891113,118.253716 240.475510,98.864212 248.244766,79.002113 
	C218.302673,79.002113 189.146698,78.948822 159.992615,79.160545 
	C158.544998,79.171059 156.426559,81.204483 155.782715,82.773041 
	C149.907394,97.086830 144.270020,111.498634 138.603317,125.897614 
	C133.535492,138.774857 133.557846,138.761230 119.902649,138.791824 
	C91.500008,138.855453 71.059265,152.203003 57.694607,176.733459 
	C52.156292,186.898895 49.278198,197.919617 50.025951,210.291779 
	C68.793312,210.291779 87.157768,210.291779 106.061012,210.291779 
	C105.082298,212.993195 104.407860,215.012756 103.625832,216.989761 
	C90.345215,250.563232 76.788544,284.030487 63.837059,317.730347 
	C51.842632,348.939911 56.773232,377.821503 77.890160,404.594604 
M208.194000,308.713287 
	C206.989578,311.814819 205.750107,314.903290 204.586044,318.019897 
	C189.435852,358.582336 208.141571,405.062012 247.014008,423.772308 
	C251.448929,425.906952 255.761734,426.419556 260.518097,425.400970 
	C275.952362,422.095673 287.879211,412.899933 299.238129,402.689270 
	C305.723572,396.859436 312.232880,391.056152 318.731476,385.240936 
	C317.998505,385.534973 317.992523,386.842163 317.999390,388.149292 
	C318.113281,409.778473 334.385345,425.979218 356.025177,425.999847 
	C366.023468,426.009399 376.026398,425.825195 386.017670,426.090210 
	C389.889130,426.192932 391.767059,425.191010 393.245361,421.300385 
	C407.008026,385.079132 420.984711,348.938629 435.034882,312.827454 
	C444.023560,289.725189 453.243469,266.712891 462.348724,243.655914 
	C462.993347,242.023605 463.547699,240.355652 464.225800,238.477890 
	C462.947021,238.313202 462.301056,238.157578 461.654999,238.157227 
	C433.326538,238.141357 404.997650,238.211502 376.670166,238.041855 
	C373.214203,238.021149 372.592194,240.020844 371.670410,242.353775 
	C356.693390,280.259888 341.522614,318.091034 326.838776,356.110260 
	C323.143799,365.677307 316.495667,370.050659 306.977112,370.849304 
	C302.535706,371.221954 297.974945,370.961090 293.539124,370.413513 
	C287.889709,369.716125 282.312073,368.437256 276.271759,367.329926 
	C282.226898,352.237518 287.780853,338.166443 293.331482,324.093994 
	C309.092834,284.134247 284.028381,242.912674 241.303741,238.357300 
	C237.588486,237.961197 235.731918,238.854645 234.314560,242.526688 
	C225.866928,264.412445 217.141373,286.190948 208.194000,308.713287 
z"/>
<path fill="#1D2614" opacity="1.000000" stroke="none" 
	d="
M77.656166,404.328613 
	C56.773232,377.821503 51.842632,348.939911 63.837059,317.730347 
	C76.788544,284.030487 90.345215,250.563232 103.625832,216.989761 
	C104.407860,215.012756 105.082298,212.993195 106.061012,210.291779 
	C87.157768,210.291779 68.793312,210.291779 50.025951,210.291779 
	C49.278198,197.919617 52.156292,186.898895 57.694607,176.733459 
	C71.059265,152.203003 91.500008,138.855453 119.902649,138.791824 
	C133.557846,138.761230 133.535492,138.774857 138.603317,125.897614 
	C144.270020,111.498634 149.907394,97.086830 155.782715,82.773041 
	C156.426559,81.204483 158.544998,79.171059 159.992615,79.160545 
	C189.146698,78.948822 218.302673,79.002113 248.244766,79.002113 
	C240.475510,98.864212 232.891113,118.253716 224.933624,138.597061 
	C292.048615,138.597061 357.753510,138.597061 423.848114,138.597061 
	C424.937561,147.051620 423.119110,154.614944 420.749878,161.993866 
	C411.393097,191.135010 385.007843,210.208969 354.347900,210.211655 
	C304.351044,210.216034 254.353760,210.307953 204.358002,210.075958 
	C198.946350,210.050842 196.710251,211.794983 194.763870,216.749084 
	C167.688919,285.662781 140.364380,354.478363 113.094131,423.315308 
	C112.492416,424.834259 111.812904,426.322388 110.990143,428.244202 
	C97.782997,422.996490 86.869164,415.177765 77.656166,404.328613 
z"/>
<path fill="#1E2715" opacity="1.000000" stroke="none" 
	d="
M208.351562,308.359375 
	C217.141373,286.190948 225.866928,264.412445 234.314560,242.526688 
	C235.731918,238.854645 237.588486,237.961197 241.303741,238.357300 
	C284.028381,242.912674 309.092834,284.134247 293.331482,324.093994 
	C287.780853,338.166443 282.226898,352.237518 276.271759,367.329926 
	C282.312073,368.437256 287.889709,369.716125 293.539124,370.413513 
	C297.974945,370.961090 302.535706,371.221954 306.977112,370.849304 
	C316.495667,370.050659 323.143799,365.677307 326.838776,356.110260 
	C341.522614,318.091034 356.693390,280.259888 371.670410,242.353775 
	C372.592194,240.020844 373.214203,238.021149 376.670166,238.041855 
	C404.997650,238.211502 433.326538,238.141357 461.654999,238.157227 
	C462.301056,238.157578 462.947021,238.313202 464.225800,238.477890 
	C463.547699,240.355652 462.993347,242.023605 462.348724,243.655914 
	C453.243469,266.712891 444.023560,289.725189 435.034882,312.827454 
	C420.984711,348.938629 407.008026,385.079132 393.245361,421.300385 
	C391.767059,425.191010 389.889130,426.192932 386.017670,426.090210 
	C376.026398,425.825195 366.023468,426.009399 356.025177,425.999847 
	C334.385345,425.979218 318.113281,409.778473 317.999390,388.149292 
	C317.992523,386.842163 317.998505,385.534973 318.731476,385.240936 
	C312.232880,391.056152 305.723572,396.859436 299.238129,402.689270 
	C287.879211,412.899933 275.952362,422.095673 260.518097,425.400970 
	C255.761734,426.419556 251.448929,425.906952 247.014008,423.772308 
	C208.141571,405.062012 189.435852,358.582336 204.586044,318.019897 
	C205.750107,314.903290 206.989578,311.814819 208.351562,308.359375 
z"/>
</svg>