<?xml version="1.0" encoding="UTF-8"?>
<svg id="Layer_1" xmlns="http://www.w3.org/2000/svg" xmlns:i="http://ns.adobe.com/AdobeIllustrator/10.0/" version="1.1" viewBox="0 0 512 512">
  <!-- Generator: Adobe Illustrator 29.7.1, SVG Export Plug-In . SVG Version: 2.1.1 Build 8)  -->
  <path d="M393.1,157.4l-75.2-86.4L256,0l-61.9,71-75.2,86.3L3.4,290h60.1l81.3-93.3,19-21.9,3.9-4.5c4,5.3,8.7,10.1,14.1,14.2,13.4,10.3,30.6,16.5,49.4,16.5s23.6-2.6,33.8-7.2c13.8,12,32.4,19.4,52.9,19.4s34.5-5.7,47.6-15.2l80.1,92h63l-115.5-132.6ZM317.8,185.2c-10.6,0-20.4-3.3-28.3-8.8-8.8-6.2-15.2-15.3-17.4-25.7-5.4,9.1-14.3,16.2-25,19.8-5,1.7-10.4,2.6-16,2.6-11.6,0-22.2-3.9-30.4-10.4-5.4-4.3-9.8-9.7-12.6-15.9l34-39,17.5-20.1,1.5-1.8,13.3-15.2,14.4,16.5,19,21.9,20.2,23.2,38.2,43.9c-7.9,5.7-17.8,9-28.6,9Z" fill="#388c5e"/>
  <path d="M473.8,321.9c0,21.9-17.8,39.6-39.6,39.6s-39.6-17.7-39.6-39.6h-39.5c0,21.9-17.8,39.6-39.6,39.6s-39.6-17.7-39.6-39.6h-39.5c0,21.9-17.8,39.6-39.6,39.6s-39.6-17.7-39.6-39.6h-39.5c0,21.9-17.8,39.6-39.6,39.6s-39.6-17.7-39.6-39.6H-1.3c0,43.7,35.4,79.1,79.1,79.1s44.9-10.4,59.4-26.8c14.5,16.5,35.7,26.8,59.4,26.8s44.9-10.4,59.4-26.8c14.5,16.5,35.7,26.8,59.4,26.8s44.9-10.4,59.4-26.8c14.5,16.5,35.7,26.8,59.4,26.8,43.7,0,79.1-35.4,79.1-79.1h-39.5Z" fill="#386e89"/>
  <path d="M473.8,432.9c0,21.9-17.8,39.6-39.6,39.6s-39.6-17.7-39.6-39.6h-39.5c0,21.9-17.8,39.6-39.6,39.6s-39.6-17.7-39.6-39.6h-39.5c0,21.9-17.8,39.6-39.6,39.6s-39.6-17.7-39.6-39.6h-39.5c0,21.9-17.8,39.6-39.6,39.6s-39.6-17.7-39.6-39.6H-1.3c0,43.7,35.4,79.1,79.1,79.1s44.9-10.4,59.4-26.8c14.5,16.5,35.7,26.8,59.4,26.8s44.9-10.4,59.4-26.8c14.5,16.5,35.7,26.8,59.4,26.8s44.9-10.4,59.4-26.8c14.5,16.5,35.7,26.8,59.4,26.8,43.7,0,79.1-35.4,79.1-79.1h-39.5Z" fill="#386e89"/>
  <metadata>
    <i:aipgfRef id="adobe_illustrator_pgf"/>
    <i:aipgf id="adobe_illustrator_pgf" i:pgfEncoding="zstd/base64" i:pgfVersion="24">

    </i:aipgf>
  </metadata>
</svg>